<svg width="158" height="24" viewBox="0 0 158 24" fill="none" xmlns="http://www.w3.org/2000/svg">
<path d="M79.2601 6.01866C80.6332 5.20412 82.1152 4.99934 84.0932 4.97639C84.3221 4.97374 84.5078 5.15968 84.5078 5.38861V8.19068C84.5078 8.4196 84.3222 8.60447 84.0934 8.61179C80.9575 8.71217 77.7181 9.96892 77.7181 13.256V17.3679C77.7181 17.5968 77.5326 17.7824 77.3036 17.7824H74.228C73.9991 17.7824 73.8135 17.5968 73.8135 17.3679V5.76166C73.8135 5.53274 73.9991 5.34716 74.228 5.34716H77.2949C77.5272 5.34716 77.7153 5.53839 77.6866 5.76891C77.5652 6.74258 77.1217 7.80263 76.6993 8.6918C76.6176 8.86387 76.6891 9.07024 76.8608 9.15268C77.032 9.23485 77.2373 9.16241 77.3159 8.9896C77.7978 7.93144 78.3341 6.60587 79.2601 6.01866Z" fill="#6366F1"/>
<path d="M89.6892 4.97418C94.717 4.97418 95.9297 7.36643 96.0876 8.84575C96.1116 9.07052 95.925 9.25183 95.699 9.25183H92.5912C92.3622 9.25183 92.1791 9.05404 92.0559 8.86109C91.7637 8.40339 90.9266 8.0081 89.3907 8.0081C88.4457 8.00812 87.4013 8.10779 87.4011 8.65476C87.4011 9.84854 96.3298 8.40662 96.3298 13.3807C96.3296 15.619 94.3894 18.1805 89.8633 18.1805C84.9548 18.1805 83.6459 15.3995 83.4886 13.4704C83.47 13.2423 83.6572 13.0569 83.8861 13.0569H86.9866C87.2155 13.0569 87.4091 13.2497 87.5221 13.4488C87.7888 13.9182 88.5572 14.5243 90.4107 14.5243C92.2004 14.5242 92.3506 13.7541 92.3507 13.6044C92.3507 12.2123 85.7868 12.6453 83.963 10.1724C83.795 9.94459 83.9711 9.65166 84.2541 9.64465C84.3386 9.64256 84.4232 9.64144 84.5079 9.64144C85.08 9.64127 85.5441 9.17734 85.5441 8.60517V6.00553C85.5441 5.84748 85.6333 5.70209 85.7783 5.63911C86.7323 5.22466 88.0168 4.97419 89.6892 4.97418Z" fill="#6366F1"/>
<path fill-rule="evenodd" clip-rule="evenodd" d="M102.854 4.97418C107.48 4.97418 110.39 7.66005 110.39 11.5895C110.39 15.519 107.48 18.1805 102.854 18.1805C100.269 18.1805 98.2225 17.4417 96.914 16.0643C96.7954 15.9395 96.7785 15.7527 96.8529 15.5975C97.196 14.8821 97.366 14.1232 97.3661 13.3807C97.3661 12.2569 97.0018 11.3631 96.4189 10.6696C96.2977 10.5256 96.3966 10.2614 96.5676 10.1829C96.9286 10.0171 97.1353 9.67207 97.1424 9.27004C97.151 8.78954 97.0725 8.18526 96.829 7.55458C96.7712 7.40479 96.7931 7.23302 96.9031 7.11603C98.2111 5.72449 100.262 4.97418 102.854 4.97418ZM102.829 8.75393C100.292 8.75408 99.5217 10.0228 99.5216 11.5895C99.5216 13.1563 100.292 14.3753 102.829 14.3755C105.366 14.3755 106.162 13.1563 106.162 11.5895C106.162 10.0227 105.365 8.75393 102.829 8.75393Z" fill="#6366F1"/>
<path d="M146.665 16.8124V24H144.924V5.34715H146.665V6.24248C146.665 6.9886 146.341 7.88393 146.093 8.60518L146.441 8.70466C146.69 8.00829 146.889 7.01347 147.411 6.49119C148.356 5.54611 149.649 4.97409 151.34 4.97409C155.071 4.97409 157.483 7.78445 157.483 11.4902C157.483 15.1959 155.071 18.1803 151.34 18.1803C149.649 18.1803 148.331 17.5834 147.411 16.5637C146.889 16.0166 146.69 15.0218 146.466 14.3254L146.093 14.4497C146.341 15.1461 146.665 16.0663 146.665 16.8124ZM151.34 6.64041C148.256 6.64041 146.665 8.7544 146.665 11.4902C146.665 14.2259 148.256 16.514 151.34 16.514C154.399 16.514 155.742 14.2259 155.742 11.4902C155.742 8.7544 154.399 6.64041 151.34 6.64041Z" fill="#64748B"/>
<path d="M132.551 16.8124V24H130.81V5.34715H132.551V6.24248C132.551 6.9886 132.227 7.88393 131.978 8.60518L132.327 8.70466C132.575 8.00829 132.774 7.01347 133.297 6.49119C134.242 5.54611 135.535 4.97409 137.226 4.97409C140.957 4.97409 143.369 7.78445 143.369 11.4902C143.369 15.1959 140.957 18.1803 137.226 18.1803C135.535 18.1803 134.217 17.5834 133.297 16.5637C132.774 16.0166 132.575 15.0218 132.352 14.3254L131.978 14.4497C132.227 15.1461 132.551 16.0663 132.551 16.8124ZM137.226 6.64041C134.142 6.64041 132.551 8.7544 132.551 11.4902C132.551 14.2259 134.142 16.514 137.226 16.514C140.285 16.514 141.628 14.2259 141.628 11.4902C141.628 8.7544 140.285 6.64041 137.226 6.64041Z" fill="#64748B"/>
<path d="M126.918 16.514C125.948 17.5585 124.58 18.1803 122.864 18.1803C119.108 18.1803 116.447 15.1959 116.447 11.4902C116.447 7.78445 119.108 4.97409 122.864 4.97409C124.555 4.97409 125.923 5.54611 126.893 6.54093C127.415 7.06321 127.639 8.05803 127.888 8.7544L128.236 8.63005C127.987 7.93368 127.614 7.03834 127.564 6.29223L127.515 5.34715H129.256V17.7824H127.515L127.564 16.7627C127.614 16.0166 127.962 15.0964 128.211 14.4L127.863 14.2756C127.614 14.972 127.415 15.9668 126.918 16.514ZM118.188 11.4902C118.188 14.2259 119.78 16.514 122.864 16.514C125.823 16.514 127.365 14.0518 127.515 11.4902C127.515 8.45596 125.823 6.64041 122.864 6.64041C119.78 6.64041 118.188 8.7544 118.188 11.4902Z" fill="#64748B"/>
<path d="M112.237 17.7824V15.4197H114.6V17.7824H112.237Z" fill="#64748B"/>
<path d="M9.47565 18.1554C4.02902 18.1554 0.0248705 14.2508 0 9.05285C0.0248705 3.87979 3.9544 0 9.30155 0C15.2401 0 17.3898 3.04022 17.7441 6.15187C17.7711 6.3892 17.5807 6.59067 17.3418 6.59067H13.9352C13.7532 6.59067 13.5943 6.47153 13.5391 6.29811C13.2342 5.33952 12.6394 4.07876 9.40104 4.07876C6.59067 4.07876 4.20311 5.37202 4.20311 9.07772C4.20311 12.7585 6.5658 14.0767 9.3513 14.0767C12.8446 14.0767 13.4786 12.79 13.8074 11.8454C13.8657 11.678 14.0217 11.5648 14.1989 11.5648H17.5971C17.8426 11.5648 18.035 11.7778 18.001 12.021C17.458 15.896 15.1268 18.1554 9.47565 18.1554Z" fill="#6366F1"/>
<path fill-rule="evenodd" clip-rule="evenodd" d="M24.5978 4.97418C29.2234 4.97435 32.133 7.66017 32.133 11.5895C32.133 15.5189 29.2235 18.1804 24.5978 18.1805C21.6777 18.1805 19.4446 17.2384 18.1865 15.4975C18.0967 15.3733 18.0921 15.2088 18.1612 15.072C18.6713 14.0613 18.9611 12.9118 19.0876 11.6705C19.1172 11.379 19.0218 11.0875 18.8255 10.87C18.629 10.6527 18.3493 10.529 18.0564 10.5289H17.5753C17.3254 10.5289 17.1314 10.3083 17.1791 10.063C17.8127 6.80783 20.5432 4.97418 24.5978 4.97418ZM24.5725 8.75393C22.0358 8.75393 21.2644 10.0227 21.2643 11.5895C21.2643 13.1563 22.0357 14.3755 24.5725 14.3755C27.1093 14.3755 27.905 13.1563 27.905 11.5895C27.9049 10.0227 27.1092 8.75393 24.5725 8.75393Z" fill="#6366F1"/>
<path d="M40.9118 4.97418C43.4237 4.97418 45.3392 6.4166 45.3392 9.25183V17.3683C45.3392 17.5973 45.1536 17.7828 44.9247 17.7828H41.8242C41.5952 17.7828 41.4096 17.5973 41.4096 17.3683V12.0874C41.4096 9.9239 40.6885 8.97879 39.1469 8.97859C37.4557 8.97859 36.0623 9.94854 36.0623 12.0874V17.3683C36.0623 17.5973 35.8768 17.7828 35.6478 17.7828H32.5473C32.3184 17.7828 32.1328 17.5973 32.1328 17.3683V15.6256C32.1328 15.5506 32.1534 15.4771 32.191 15.4121C32.8309 14.3029 33.1691 13.0064 33.1691 11.5895C33.169 10.1716 32.8312 8.87159 32.1907 7.75868C32.1533 7.69378 32.1328 7.62044 32.1328 7.54556V5.76211C32.1328 5.53318 32.3184 5.3476 32.5473 5.3476H35.6478C35.8767 5.3476 36.0634 5.53344 36.0399 5.76116C35.9369 6.75591 35.5002 7.89123 35.1407 8.83069C35.0725 9.00867 35.1618 9.20778 35.3397 9.27601C35.5189 9.34471 35.7197 9.25453 35.7824 9.07314C36.1581 7.98558 36.5248 6.59706 37.3809 5.94366C38.301 5.24759 39.4448 4.97424 40.9118 4.97418Z" fill="#6366F1"/>
<path d="M52.2033 4.97418C56.3615 4.97421 58.8586 7.21888 59.2899 10.002C59.3269 10.2403 59.1352 10.446 58.8941 10.446H55.5849C55.3264 10.446 55.0064 10.2737 54.8679 10.0554C54.5247 9.51458 53.7268 8.6386 52.0789 8.65476C50.4624 8.65477 49.2191 9.57506 49.219 11.465C49.1941 13.3301 50.3377 14.4745 52.0536 14.4747C53.613 14.4906 54.4802 13.6411 54.8829 13.0922C55.0472 12.8684 55.4418 12.6592 55.7195 12.6592H58.9394C59.1911 12.6592 59.3856 12.8824 59.3336 13.1287C58.7081 16.0907 56.1754 18.1805 52.2276 18.1805C49.5939 18.1804 47.5926 17.2651 46.4429 15.5695C46.3981 15.5034 46.3753 15.425 46.3753 15.3451V9.25183C46.3753 8.81859 46.3357 8.40575 46.2599 8.0152C46.2399 7.91215 46.2556 7.80447 46.3115 7.71559C47.4506 5.90371 49.5273 4.97418 52.2033 4.97418Z" fill="#6366F1"/>
<path d="M63.3202 11.4408C63.3203 14.002 64.5393 14.7731 66.2054 14.7732C68.0209 14.7732 68.8415 13.7286 68.8416 11.4408V5.76212C68.8416 5.53319 69.0272 5.34761 69.2561 5.34761H72.3566C72.5856 5.34761 72.7711 5.53319 72.7711 5.76212V17.3683C72.7711 17.5973 72.5856 17.7828 72.3566 17.7828H69.1917C69.0026 17.7828 68.8532 17.6223 68.8669 17.4337C68.8671 16.77 69.2539 16.0326 69.536 15.3802C69.6095 15.2103 69.5247 15.0166 69.3528 14.9477C69.18 14.8785 68.9839 14.9613 68.9256 15.1381C68.6996 15.8232 68.5392 16.6646 68.0462 17.1362C67.1261 18.0065 66.2304 18.1552 64.4648 18.1552C62.4386 18.1552 60.4587 17.2375 59.7197 15.4629C59.6751 15.3559 59.6849 15.2352 59.7356 15.131C60.0616 14.4611 60.2933 13.6991 60.4422 12.8029C60.7702 10.8275 60.3936 9.02127 59.4819 7.56112C59.4395 7.49317 59.416 7.41496 59.416 7.33486V5.76212C59.416 5.53319 59.6016 5.34761 59.8305 5.34761H62.9057C63.1347 5.34761 63.3202 5.53319 63.3202 5.76212V11.4408Z" fill="#6366F1"/>
</svg>
