<svg width="121" height="16" viewBox="0 0 121 16" fill="none" xmlns="http://www.w3.org/2000/svg">
    <path
        d="M77.9342 13.0072L75.4178 10.2446C74.7315 11.0504 73.5877 12.2014 71.4144 12.2014C69.2411 12.2014 67.7541 10.2446 68.0973 7.13669C68.4404 4.02878 70.7281 3.22302 72.2151 3.91367C73.4047 4.46619 73.9308 6.06235 74.0452 6.79137L77.9342 6.10072C77.1335 1.26619 74.274 0 70.8425 0C67.411 0 63.6364 2.64748 63.6364 8.05755C63.6364 13.4676 67.6398 16 71.6432 16C74.8459 16 77.1717 14.0048 77.9342 13.0072Z"
        fill="#1674FF" />
    <path
        d="M85.8975 0.45166C88.601 0.451653 92.0633 1.57801 92.0635 5.97119C92.0635 10.8152 87.9252 11.604 85.8975 11.604H83.5322V15.6597H79.1855V0.45166H85.8975ZM83.498 8.42725H85.3193C86.1208 8.42725 87.7568 8.09329 87.7568 6.04639C87.7567 4.19014 86.3879 3.71435 85.3193 3.71436H83.498V8.42725Z"
        fill="#1674FF" />
    <path
        d="M97.0109 15.6595H92.913V0.340332H96.4134L102.638 9.0517V0.340332H106.87V15.6595H103.011L97.0109 7.29458V15.6595Z"
        fill="#1674FF" />
    <path
        d="M111.972 0.340332H107.892L107.892 9.64753C107.892 12.4945 109.394 15.9999 114.41 15.9999C119.427 15.9999 120.828 12.5835 120.828 9.64753L120.828 0.340332H116.748L116.689 9.86632C116.689 10.9189 116.285 12.3222 114.41 12.3222C112.536 12.3222 112.03 10.9189 112.03 9.86632L111.972 0.340332Z"
        fill="#1674FF" />
    <rect x="1.45453" y="1.81836" width="59.6364" height="14.1818" fill="#050728" />
    <path d="M0 0H59.6364V14.5455H0V0Z" fill="#0453C7" />
    <path d="M59.6364 0V14.5455H0V0H59.6364ZM0.727273 13.8182H58.9091V0.727273H0.727273V13.8182Z"
        fill="#050728" />
    <path
        d="M54.5043 11.3122C53.9488 11.3122 53.4087 11.2215 52.884 11.0402C52.3632 10.8589 51.9254 10.6023 51.5704 10.2706L52.3401 8.88753C53.1502 9.42377 53.8485 9.69188 54.4349 9.69188C54.7589 9.69188 54.9209 9.59737 54.9209 9.40834C54.9209 9.31189 54.8631 9.23473 54.7473 9.17687C54.6316 9.11514 54.4175 9.03413 54.105 8.93383C53.8851 8.85667 53.7096 8.79495 53.5784 8.74865C53.4511 8.6985 53.3045 8.64063 53.1386 8.57505C52.9727 8.50561 52.8435 8.44389 52.7509 8.38988C52.6583 8.33587 52.558 8.27221 52.45 8.19892C52.342 8.12176 52.2591 8.04653 52.2012 7.97323C52.1472 7.89608 52.0932 7.80928 52.0392 7.71283C51.9851 7.61639 51.9485 7.51223 51.9292 7.40035C51.9099 7.28462 51.9003 7.15924 51.9003 7.02421C51.9003 6.37225 52.1395 5.84373 52.6178 5.43866C53.0962 5.03359 53.7501 4.83105 54.5795 4.83105C55.5324 4.83105 56.3618 5.13196 57.0678 5.73378L56.2114 7.10523C55.4822 6.65772 54.9055 6.43397 54.4811 6.43397C54.1494 6.43397 53.9835 6.54392 53.9835 6.76381C53.9835 6.87569 54.0394 6.96442 54.1513 7.03C54.267 7.09173 54.4773 7.16502 54.7821 7.2499C55.1293 7.35791 55.4147 7.45436 55.6385 7.53923C55.8622 7.62024 56.0744 7.71669 56.275 7.82857C56.4795 7.94044 56.6357 8.06003 56.7437 8.18734C56.8518 8.31079 56.9366 8.45739 56.9984 8.62713C57.0601 8.79687 57.0909 8.99362 57.0909 9.21737C57.0909 9.86934 56.8595 10.3824 56.3965 10.7566C55.9336 11.127 55.3029 11.3122 54.5043 11.3122Z"
        fill="#FBFBF4" />
    <path
        d="M47.8554 11.3123C47.4272 11.3123 47.0279 11.2564 46.6575 11.1445C46.291 11.0326 45.9728 10.8802 45.7027 10.6873C45.4365 10.4906 45.207 10.2611 45.0141 9.99872C44.8212 9.73254 44.6765 9.44513 44.5801 9.13651C44.4875 8.82402 44.4412 8.49997 44.4412 8.16434C44.4412 7.70912 44.5145 7.28283 44.6611 6.88548C44.8116 6.48813 45.0276 6.13707 45.3092 5.8323C45.5908 5.52753 45.9496 5.28642 46.3856 5.10896C46.8253 4.9315 47.3153 4.84277 47.8554 4.84277C48.3955 4.84277 48.8854 4.9315 49.3252 5.10896C49.765 5.28256 50.1238 5.51982 50.4015 5.82073C50.6793 6.11778 50.8934 6.45919 51.0438 6.84497C51.1943 7.23075 51.2695 7.64161 51.2695 8.07754C51.2695 8.30515 51.2483 8.53469 51.2059 8.76616H46.8369C46.8601 9.07864 46.9758 9.31396 47.1841 9.47213C47.3924 9.62645 47.6393 9.7036 47.9248 9.7036C48.1756 9.7036 48.409 9.64574 48.625 9.53C48.841 9.41427 48.9838 9.26188 49.0532 9.07285L50.957 9.62259C50.6909 10.1395 50.2896 10.5504 49.7534 10.8552C49.221 11.1599 48.5884 11.3123 47.8554 11.3123ZM46.7848 7.41786H48.8507C48.816 7.11695 48.706 6.87969 48.5208 6.70609C48.3395 6.53249 48.1061 6.44569 47.8207 6.44569C47.5352 6.44569 47.2999 6.53249 47.1147 6.70609C46.9295 6.87969 46.8196 7.11695 46.7848 7.41786Z"
        fill="#FBFBF4" />
    <path
        d="M39.8061 3.84742C39.7058 3.84742 39.619 3.86671 39.5457 3.90529C39.4724 3.94386 39.4184 3.98823 39.3837 4.03838C39.3489 4.08853 39.32 4.1464 39.2969 4.21198C39.2776 4.27371 39.266 4.32 39.2621 4.35086C39.2583 4.38172 39.2563 4.40487 39.2563 4.4203H38.0643C38.0643 4.32771 38.0816 4.21005 38.1164 4.06731C38.1549 3.92072 38.2167 3.75869 38.3015 3.58123C38.3903 3.40377 38.4944 3.23981 38.614 3.08936C38.7336 2.93505 38.8899 2.80581 39.0827 2.70165C39.2756 2.59749 39.484 2.54541 39.7077 2.54541C39.8813 2.54541 40.0472 2.5782 40.2054 2.64378C40.3635 2.70551 40.4928 2.77302 40.5931 2.84632C40.6934 2.91962 40.8072 2.98906 40.9345 3.05464C41.0657 3.11636 41.191 3.14723 41.3106 3.14723C41.4071 3.14723 41.4939 3.12794 41.571 3.08936C41.6482 3.04692 41.706 2.9987 41.7446 2.94469C41.7832 2.89068 41.8141 2.83282 41.8372 2.77109C41.8642 2.70937 41.8816 2.66114 41.8893 2.62642C41.897 2.58785 41.9009 2.56084 41.9009 2.54541H43.0871C43.0871 2.61099 43.0679 2.7113 43.0293 2.84632C42.9907 2.98134 42.927 3.14144 42.8383 3.32661C42.7496 3.50793 42.6435 3.6796 42.52 3.84163C42.3966 3.9998 42.2346 4.13675 42.034 4.25249C41.8334 4.36436 41.6192 4.4203 41.3916 4.4203C41.2296 4.4203 41.0695 4.39137 40.9113 4.3335C40.757 4.27178 40.6278 4.20619 40.5236 4.13675C40.4233 4.06345 40.3076 3.99787 40.1764 3.94001C40.0453 3.87828 39.9218 3.84742 39.8061 3.84742ZM37.1616 8.0775C37.1616 7.64157 37.2368 7.23071 37.3872 6.84493C37.5377 6.45915 37.7518 6.11773 38.0296 5.82068C38.3073 5.51977 38.6661 5.28252 39.1059 5.10892C39.5457 4.93146 40.0356 4.84273 40.5757 4.84273C41.1158 4.84273 41.6057 4.93146 42.0455 5.10892C42.4853 5.28252 42.8441 5.51977 43.1219 5.82068C43.3996 6.11773 43.6137 6.45915 43.7642 6.84493C43.9146 7.23071 43.9899 7.64157 43.9899 8.0775C43.9899 8.50957 43.9146 8.9185 43.7642 9.30428C43.6137 9.69006 43.3996 10.0334 43.1219 10.3343C42.8441 10.6352 42.4853 10.8744 42.0455 11.0519C41.6057 11.2255 41.1158 11.3123 40.5757 11.3123C40.0356 11.3123 39.5457 11.2255 39.1059 11.0519C38.6661 10.8744 38.3073 10.6352 38.0296 10.3343C37.7518 10.0334 37.5377 9.69006 37.3872 9.30428C37.2368 8.9185 37.1616 8.50957 37.1616 8.0775ZM39.7771 9.05545C39.9855 9.29849 40.2517 9.42001 40.5757 9.42001C40.8998 9.42001 41.164 9.29849 41.3685 9.05545C41.573 8.81241 41.6752 8.48642 41.6752 8.0775C41.6752 7.66857 41.573 7.34451 41.3685 7.10533C41.164 6.86229 40.8998 6.74077 40.5757 6.74077C40.2478 6.74077 39.9816 6.86229 39.7771 7.10533C39.5727 7.34451 39.4705 7.66857 39.4705 8.0775C39.4705 8.48642 39.5727 8.81241 39.7771 9.05545Z"
        fill="#FBFBF4" />
    <path
        d="M36.9358 10.8551C36.2028 11.1714 35.5123 11.3296 34.8642 11.3296C34.598 11.3296 34.355 11.2968 34.1351 11.2312C33.919 11.1656 33.7223 11.0653 33.5448 10.9303C33.3712 10.7914 33.2343 10.6024 33.134 10.3632C33.0375 10.124 32.9893 9.84047 32.9893 9.51255V6.65971H32.2197V4.96421H32.9893V3.0083H35.2403V4.96421H36.4613V6.65971H35.2403V8.71978C35.2403 9.09012 35.4024 9.2753 35.7264 9.2753C35.9309 9.2753 36.199 9.20779 36.5308 9.07276L36.9358 10.8551Z"
        fill="#FBFBF4" />
    <path
        d="M29.1933 11.3122C28.6377 11.3122 28.0976 11.2215 27.573 11.0402C27.0522 10.8589 26.6143 10.6023 26.2594 10.2706L27.029 8.88753C27.8392 9.42377 28.5374 9.69188 29.1238 9.69188C29.4479 9.69188 29.6099 9.59737 29.6099 9.40834C29.6099 9.31189 29.552 9.23473 29.4363 9.17687C29.3206 9.11514 29.1065 9.03413 28.794 8.93383C28.5741 8.85667 28.3986 8.79495 28.2674 8.74865C28.1401 8.6985 27.9935 8.64063 27.8276 8.57505C27.6617 8.50561 27.5325 8.44389 27.4399 8.38988C27.3473 8.33587 27.247 8.27221 27.139 8.19892C27.031 8.12176 26.948 8.04653 26.8901 7.97323C26.8361 7.89608 26.7821 7.80928 26.7281 7.71283C26.6741 7.61639 26.6375 7.51223 26.6182 7.40035C26.5989 7.28462 26.5892 7.15924 26.5892 7.02421C26.5892 6.37225 26.8284 5.84373 27.3068 5.43866C27.7852 5.03359 28.4391 4.83105 29.2685 4.83105C30.2214 4.83105 31.0508 5.13196 31.7568 5.73378L30.9003 7.10523C30.1712 6.65772 29.5945 6.43397 29.1701 6.43397C28.8383 6.43397 28.6725 6.54392 28.6725 6.76381C28.6725 6.87569 28.7284 6.96442 28.8403 7.03C28.956 7.09173 29.1663 7.16502 29.471 7.2499C29.8182 7.35791 30.1037 7.45436 30.3275 7.53923C30.5512 7.62024 30.7634 7.71669 30.964 7.82857C31.1685 7.94044 31.3247 8.06003 31.4327 8.18734C31.5407 8.31079 31.6256 8.45739 31.6873 8.62713C31.7491 8.79687 31.7799 8.99362 31.7799 9.21737C31.7799 9.86934 31.5484 10.3824 31.0855 10.7566C30.6226 11.127 29.9918 11.3122 29.1933 11.3122Z"
        fill="#FBFBF4" />
    <path
        d="M22.5443 11.3123C22.1161 11.3123 21.7168 11.2564 21.3465 11.1445C20.98 11.0326 20.6617 10.8802 20.3917 10.6873C20.1255 10.4906 19.896 10.2611 19.7031 9.99872C19.5102 9.73254 19.3655 9.44513 19.2691 9.13651C19.1765 8.82402 19.1302 8.49997 19.1302 8.16434C19.1302 7.70912 19.2035 7.28283 19.3501 6.88548C19.5005 6.48813 19.7166 6.13707 19.9982 5.8323C20.2798 5.52753 20.6386 5.28642 21.0745 5.10896C21.5143 4.9315 22.0042 4.84277 22.5443 4.84277C23.0844 4.84277 23.5744 4.9315 24.0142 5.10896C24.454 5.28256 24.8127 5.51982 25.0905 5.82073C25.3683 6.11778 25.5824 6.45919 25.7328 6.84497C25.8833 7.23075 25.9585 7.64161 25.9585 8.07754C25.9585 8.30515 25.9373 8.53469 25.8948 8.76616H21.5259C21.549 9.07864 21.6648 9.31396 21.8731 9.47213C22.0814 9.62645 22.3283 9.7036 22.6138 9.7036C22.8645 9.7036 23.0979 9.64574 23.314 9.53C23.53 9.41427 23.6727 9.26188 23.7422 9.07285L25.646 9.62259C25.3798 10.1395 24.9786 10.5504 24.4424 10.8552C23.91 11.1599 23.2773 11.3123 22.5443 11.3123ZM21.4738 7.41786H23.5397C23.5049 7.11695 23.395 6.87969 23.2098 6.70609C23.0285 6.53249 22.7951 6.44569 22.5096 6.44569C22.2241 6.44569 21.9888 6.53249 21.8036 6.70609C21.6185 6.87969 21.5085 7.11695 21.4738 7.41786Z"
        fill="#FBFBF4" />
    <path
        d="M11.8563 9.06134V4.96436H14.1073V8.55211C14.1073 8.82216 14.1671 9.03434 14.2867 9.18865C14.4101 9.34296 14.5799 9.42012 14.7959 9.42012C15.2203 9.42012 15.579 9.20601 15.8722 8.77779V4.96436H18.1233V8.70835C18.1233 8.92053 18.1541 9.06906 18.2158 9.15393C18.2776 9.2388 18.3894 9.28702 18.5515 9.29859V11.1966C18.1657 11.2738 17.8494 11.3124 17.6025 11.3124C16.8348 11.3124 16.393 11.025 16.2773 10.4501L16.231 10.2245C15.6871 10.9497 14.8769 11.3124 13.8006 11.3124C13.1718 11.3124 12.6895 11.1195 12.3539 10.7337C12.0221 10.3479 11.8563 9.79046 11.8563 9.06134Z"
        fill="#FBFBF4" />
    <path
        d="M11.3065 11.1963H9.1481L8.76618 10.7913C8.17207 11.0999 7.51625 11.2542 6.7987 11.2542C6.18145 11.2542 5.60278 11.1327 5.06269 10.8896C4.52645 10.6466 4.07702 10.3264 3.71438 9.92905C3.35175 9.5317 3.06627 9.07648 2.85795 8.56339C2.64963 8.04645 2.54547 7.51793 2.54547 6.97784C2.54547 6.42617 2.65349 5.89186 2.86953 5.37492C3.08556 4.85797 3.38069 4.40468 3.75489 4.01504C4.1291 3.62541 4.58432 3.31292 5.12055 3.0776C5.66065 2.84227 6.23546 2.72461 6.84499 2.72461C7.46224 2.72461 8.04091 2.84806 8.581 3.09496C9.12109 3.34186 9.57053 3.66784 9.9293 4.07291C10.2919 4.47412 10.5755 4.9332 10.7799 5.45015C10.9883 5.96323 11.0924 6.48789 11.0924 7.02413C11.0924 7.53336 10.9998 8.02909 10.8147 8.51131C10.6295 8.99354 10.3691 9.42561 10.0335 9.80753L11.3065 11.1963ZM6.82184 9.20572C6.99544 9.20572 7.1459 9.19028 7.27321 9.15942L5.87861 7.64331H8.03126L8.4942 8.15254C8.66009 7.80533 8.74303 7.41377 8.74303 6.97784C8.74303 6.58434 8.67359 6.22556 8.53471 5.90151C8.39968 5.5736 8.18172 5.30355 7.88081 5.09137C7.58376 4.87919 7.22691 4.7731 6.81027 4.7731C6.49007 4.7731 6.2046 4.83676 5.95384 4.96406C5.70308 5.09137 5.50248 5.26304 5.35202 5.47908C5.20157 5.69126 5.08776 5.92851 5.01061 6.19084C4.93345 6.44932 4.89487 6.71936 4.89487 7.00098C4.89487 7.29032 4.93345 7.56422 5.01061 7.82269C5.09162 8.08117 5.20928 8.31456 5.3636 8.52288C5.51791 8.73121 5.72044 8.89709 5.9712 9.02054C6.22196 9.14399 6.5055 9.20572 6.82184 9.20572Z"
        fill="#FBFBF4" />
</svg>