<svg width="40" height="40" viewBox="0 0 40 40" fill="none" xmlns="http://www.w3.org/2000/svg">
    <path
        d="M19.7722 0.0847912C19.903 -0.0282638 20.097 -0.0282637 20.2277 0.0847913L23.264 2.70937C23.3568 2.78958 23.4849 2.81506 23.6013 2.77647L27.4108 1.51359C27.5749 1.45919 27.7541 1.5334 27.8316 1.6879L29.6324 5.27461C29.6874 5.38422 29.796 5.4568 29.9183 5.4657L33.9211 5.75678C34.0936 5.76932 34.2307 5.90644 34.2432 6.07886L34.5343 10.0817C34.5432 10.204 34.6158 10.3126 34.7254 10.3676L38.3121 12.1684C38.4666 12.2459 38.5408 12.4251 38.4864 12.5892L37.2235 16.3987C37.1849 16.5151 37.2104 16.6432 37.2906 16.736L39.9152 19.7722C40.0283 19.903 40.0283 20.097 39.9152 20.2277L37.2906 23.264C37.2104 23.3568 37.1849 23.4849 37.2235 23.6013L38.4864 27.4108C38.5408 27.5749 38.4666 27.7541 38.3121 27.8316L34.7254 29.6324C34.6158 29.6874 34.5432 29.796 34.5343 29.9183L34.2432 33.9211C34.2307 34.0936 34.0936 34.2307 33.9211 34.2432L29.9183 34.5343C29.796 34.5432 29.6874 34.6158 29.6324 34.7254L27.8316 38.3121C27.7541 38.4666 27.5749 38.5408 27.4108 38.4864L23.6013 37.2235C23.4849 37.1849 23.3568 37.2104 23.264 37.2906L20.2277 39.9152C20.097 40.0283 19.903 40.0283 19.7722 39.9152L16.736 37.2906C16.6432 37.2104 16.5151 37.1849 16.3987 37.2235L12.5892 38.4864C12.4251 38.5408 12.2459 38.4666 12.1684 38.3121L10.3676 34.7254C10.3126 34.6158 10.204 34.5432 10.0817 34.5343L6.07886 34.2432C5.90644 34.2307 5.76932 34.0936 5.75678 33.9211L5.4657 29.9183C5.4568 29.796 5.38422 29.6874 5.27461 29.6324L1.6879 27.8316C1.5334 27.7541 1.45919 27.5749 1.51359 27.4108L2.77647 23.6013C2.81506 23.4849 2.78958 23.3568 2.70937 23.264L0.0847912 20.2277C-0.0282638 20.097 -0.0282637 19.903 0.0847913 19.7722L2.70937 16.736C2.78958 16.6432 2.81506 16.5151 2.77647 16.3987L1.51359 12.5892C1.45919 12.4251 1.5334 12.2459 1.6879 12.1684L5.27461 10.3676C5.38422 10.3126 5.4568 10.204 5.4657 10.0817L5.75678 6.07886C5.76932 5.90644 5.90644 5.76932 6.07886 5.75678L10.0817 5.4657C10.204 5.4568 10.3126 5.38422 10.3676 5.27461L12.1684 1.6879C12.2459 1.5334 12.4251 1.45919 12.5892 1.51359L16.3987 2.77647C16.5151 2.81506 16.6432 2.78958 16.736 2.70937L19.7722 0.0847912Z"
        fill="#F5F5F5" />
    <path
        d="M16.3106 14.1881C16.3106 13.8126 16.5269 13.4726 16.8644 13.3218L19.6337 12.0798C19.8702 11.9734 20.1385 11.9734 20.375 12.0798L23.1442 13.3218C23.4788 13.4726 23.6952 13.8126 23.6952 14.1881V17.1185C23.6952 19.209 22.0423 20.9033 20.0029 20.9033C17.9635 20.9033 16.3106 19.209 16.3106 17.1185V14.1881ZM22.3106 16.6454H19.0913H19.0798H17.6952V17.1185C17.6952 18.4254 18.7279 19.484 20.0029 19.484C21.2779 19.484 22.3106 18.4254 22.3106 17.1185V16.6454ZM19.5413 13.3336V13.8067H19.0798C18.9529 13.8067 18.849 13.9131 18.849 14.0432V14.5164C18.849 14.6465 18.9529 14.7529 19.0798 14.7529H19.5413V15.226C19.5413 15.3561 19.6452 15.4626 19.7721 15.4626H20.2337C20.3606 15.4626 20.4644 15.3561 20.4644 15.226V14.7529H20.926C21.0529 14.7529 21.1567 14.6465 21.1567 14.5164V14.0432C21.1567 13.9131 21.0529 13.8067 20.926 13.8067H20.4644V13.3336C20.4644 13.2035 20.3606 13.097 20.2337 13.097H19.7721C19.6452 13.097 19.5413 13.2035 19.5413 13.3336ZM17.6548 22.4114C17.4673 22.2665 17.2163 22.2281 17.0029 22.3286C15.2317 23.1624 14 24.9957 14 27.1218C14 27.6067 14.3837 28 14.8567 28H25.1433C25.6163 28 26 27.6067 26 27.1218C26 24.9928 24.7683 23.1595 22.9971 22.3286C22.7837 22.2281 22.5327 22.2665 22.3452 22.4114L20.4125 23.8958C20.1673 24.085 19.8269 24.085 19.5817 23.8958L17.649 22.4114H17.6548Z"
        fill="#1D4ED8" />
</svg>