<svg width="24" height="24" viewBox="0 0 24 24" fill="none" xmlns="http://www.w3.org/2000/svg">
<rect width="24" height="24" fill="white"/>
<rect x="4.73456" y="5.13818" width="16.1455" height="15.7418" fill="#050728"/>
<path d="M3.12 3.12H19.2654V19.2654H3.12V3.12Z" fill="#0453C7"/>
<path d="M19.2654 3.12V19.2654H3.12V3.12H19.2654ZM3.92727 18.4582H18.4582V3.92727H3.92727V18.4582Z" fill="#050728"/>
<path d="M16.44 16.37H13.8384L13.378 15.8799C12.6619 16.2533 11.8714 16.44 11.0066 16.44C10.2626 16.44 9.56508 16.293 8.91409 15.9989C8.26775 15.7049 7.72603 15.3174 7.28893 14.8367C6.85184 14.3559 6.50775 13.8052 6.25665 13.1844C6.00555 12.5589 5.88 11.9195 5.88 11.266C5.88 10.5985 6.0102 9.95207 6.2706 9.32662C6.531 8.70116 6.88672 8.15272 7.33776 7.6813C7.7888 7.20987 8.3375 6.8318 8.98384 6.54708C9.63483 6.26236 10.3277 6.12 11.0624 6.12C11.8063 6.12 12.5038 6.26936 13.1548 6.56808C13.8058 6.86681 14.3475 7.26122 14.78 7.75131C15.2171 8.23674 15.5588 8.79218 15.8053 9.41763C16.0564 10.0384 16.1819 10.6732 16.1819 11.322C16.1819 11.9381 16.0703 12.5379 15.8471 13.1214C15.6239 13.7048 15.3101 14.2276 14.9055 14.6897L16.44 16.37ZM11.0345 13.9615C11.2437 13.9615 11.4251 13.9428 11.5785 13.9055L9.89755 12.0711H12.4922L13.0502 12.6873C13.2502 12.2672 13.3501 11.7934 13.3501 11.266C13.3501 10.7899 13.2664 10.3558 13.099 9.96374C12.9363 9.567 12.6736 9.24027 12.3109 8.98355C11.9528 8.72683 11.5227 8.59848 11.0205 8.59848C10.6346 8.59848 10.2905 8.67549 9.98822 8.82952C9.68598 8.98355 9.44418 9.19126 9.26283 9.45264C9.08148 9.70936 8.94431 9.99641 8.85131 10.3138C8.75831 10.6265 8.71181 10.9533 8.71181 11.294C8.71181 11.6441 8.75831 11.9755 8.85131 12.2882C8.94896 12.6009 9.09078 12.8833 9.27678 13.1354C9.46278 13.3874 9.7069 13.5881 10.0091 13.7375C10.3114 13.8868 10.6532 13.9615 11.0345 13.9615Z" fill="#FBFBF4"/>
</svg>
