<svg width="156" height="57" viewBox="0 0 156 57" fill="none" xmlns="http://www.w3.org/2000/svg">
    <path
        d="M91.5452 38.9041C90.3385 40.2061 88.592 41 86.4326 41C81.6693 41 78.3032 37.1893 78.3032 32.4578C78.3032 27.7262 81.6693 24.1379 86.4326 24.1379C88.592 24.1379 90.3067 24.8683 91.5135 26.1067C92.1803 26.8053 92.4026 28.0755 92.7202 28.9964L93.26 28.8059C92.9424 27.9168 92.4344 26.7736 92.4026 25.8209L92.3391 24.6142H95.1336V40.4919H92.3391L92.4026 39.1899C92.4344 38.2373 92.9424 37.0941 93.2282 36.1732L92.7202 36.0144C92.4026 36.9035 92.1803 38.1737 91.5452 38.9041ZM81.0659 32.4578C81.0659 35.6651 83.0348 38.3643 86.4961 38.3643C89.9257 38.3643 91.7993 35.5063 91.958 32.4578C91.958 28.9647 89.9892 26.7736 86.4961 26.7736C83.003 26.7736 81.0659 29.2187 81.0659 32.4578Z"
        fill="#001623" />
    <path
        d="M71.2466 36.6495V17.4692H74.0411V36.1414C74.0411 37.4434 74.4856 37.8562 75.8511 37.8562H78.0105V40.4919H75.9781C72.6756 40.4919 71.2466 39.3487 71.2466 36.6495Z"
        fill="#001623" />
    <path
        d="M63.4086 39.3487C61.9478 40.7459 60.7093 40.9682 58.55 40.9682C55.5967 40.9682 52.7705 39.0946 52.7705 35.5063V24.6142H55.5332V33.601C55.5332 36.9353 56.994 38.396 59.1216 38.396C61.4397 38.396 64.1707 36.9988 64.1707 33.601V24.6142H66.9652V40.4919H64.1707L64.2024 39.6662C64.2342 38.9041 64.6788 38.0467 64.9646 37.3481L64.4247 37.1576C64.1707 37.8562 63.9166 38.8088 63.4086 39.3487Z"
        fill="#001623" />
    <path
        d="M40.263 25.5034C41.2156 24.773 42.4858 24.1379 43.9783 24.1379C47.2174 24.1379 49.7261 25.9797 49.7261 29.5998V40.4919H46.9316V31.4416C46.9316 28.012 45.7566 26.4878 43.3115 26.4878C40.6123 26.4878 39.5008 28.0438 39.5008 31.4416V40.4919H36.7064V31.4416C36.7064 28.012 35.4997 26.4878 32.9592 26.4878C30.1965 26.4878 28.9263 28.0438 28.9263 31.4416V40.4919H26.1318V24.6142H28.9263V24.8047C28.9263 26.202 28.3865 27.9485 28.0054 29.2822L28.5135 29.441C28.9263 28.1073 29.1803 26.1702 30.1648 25.1858C30.9586 24.3919 31.9748 24.1379 33.6579 24.1379C35.2139 24.1379 36.5158 24.4237 37.4367 25.1223C38.5164 26.0114 38.1989 28.012 38.0083 29.4093L38.5799 29.4728C38.7705 28.1073 39.1515 26.3608 40.263 25.5034Z"
        fill="#001623" />
    <path
        d="M20.1763 21.2799V18.2631H23.2883V21.2799H20.1763ZM20.3668 40.4919V24.6142H23.1613V40.4919H20.3668Z"
        fill="#001623" />
    <path
        d="M17.656 22.5819L14.925 23.2805C14.1629 21.788 12.0353 20.4225 8.92325 20.4225C6.22405 20.4225 3.46133 21.5339 3.46133 23.6298C3.46133 27.3134 18.0688 26.9006 18.0688 34.3949C18.0688 38.9041 13.7501 40.9682 8.85974 40.9682C4.28697 40.9682 1.23846 38.5866 0 35.411L2.76272 34.7124C3.77889 37.1576 6.38283 38.2055 8.98676 38.2055C12.5751 38.2055 14.798 36.7448 14.798 34.7759C14.798 29.5363 0.381064 30.5842 0.381064 23.7568C0.381064 19.6286 4.95383 17.7868 9.24081 17.7868C13.7501 17.7868 16.7033 20.232 17.656 22.5819Z"
        fill="#001623" />
    <path
        d="M143.59 17C149.967 17 155.32 22.6488 155.32 28.7148C155.32 34.7809 149.967 40.4619 143.59 40.4619C139.986 40.4619 136.711 38.8219 134.542 36.2031C134.327 35.5059 134.149 34.8938 134.068 34.5312C134.051 34.4486 134.033 34.3655 134.016 34.2822C133.696 32.7725 133.357 31.1846 131.938 30.0928C131.912 29.8587 131.891 29.6224 131.878 29.3838C132.792 28.9192 133.641 28.3145 134.269 27.4463C134.944 26.5115 135.323 25.3325 135.323 23.833C135.323 22.7314 135.148 21.7675 134.809 20.9326C136.974 18.5033 140.13 17 143.59 17ZM143.59 22.2314C139.129 22.2314 137.443 25.8262 137.443 28.7148C137.443 31.6034 139.129 35.1982 143.59 35.1982C148.084 35.1982 149.77 31.6034 149.77 28.7148C149.77 25.8263 148.084 22.2315 143.59 22.2314Z"
        fill="#027FC5" />
    <path
        d="M109.062 30.8278C108.175 30.8278 107.594 30.8278 105.885 30.7948V40.4619H100.332V17.3666H109.358C114.253 17.3666 118.295 18.4224 118.295 23.9652C118.295 29.5081 114.319 30.8278 109.062 30.8278ZM105.885 26.3078H108.208C110.672 26.3078 112.939 26.1428 112.939 23.9982C112.939 21.9196 110.869 21.9196 108.208 21.9196H105.885V26.3078Z"
        fill="#027FC5" />
    <path
        d="M124.625 17.3666C130.075 17.3666 134.59 18.4226 134.59 23.8334C134.59 26.5715 133.219 27.924 131.38 28.8148C130.009 29.4417 128.002 29.2445 126.497 29.2445V30.1351C128.002 30.1351 130.108 29.7392 131.346 30.5638C132.717 31.5206 132.985 32.9723 133.353 34.6879C133.653 36.0406 135.158 40.4623 135.158 40.4623H129.307C128.604 37.5589 128.069 35.4134 127.936 34.9515C126.966 31.2242 124.793 32.1139 123.622 32.0482H121.879V40.4623H116.462V29.807C118.101 28.6035 119.028 26.7115 119.028 23.9652C119.028 21.2156 118.084 19.3754 116.462 18.2338V17.3666H124.625ZM121.879 27.6605H124.09C126.631 27.6605 128.938 25.9114 128.938 23.8988C128.938 21.8205 126.798 20.5668 124.09 20.5668H121.879V27.6605Z"
        fill="#027FC5" />
</svg>