<svg width="40" height="40" viewBox="0 0 40 40" fill="none" xmlns="http://www.w3.org/2000/svg">
    <path
        d="M19.7722 0.0847912C19.903 -0.0282638 20.097 -0.0282637 20.2277 0.0847913L23.264 2.70937C23.3568 2.78958 23.4849 2.81506 23.6013 2.77647L27.4108 1.51359C27.5749 1.45919 27.7541 1.5334 27.8316 1.6879L29.6324 5.27461C29.6874 5.38422 29.796 5.4568 29.9183 5.4657L33.9211 5.75678C34.0936 5.76932 34.2307 5.90644 34.2432 6.07886L34.5343 10.0817C34.5432 10.204 34.6158 10.3126 34.7254 10.3676L38.3121 12.1684C38.4666 12.2459 38.5408 12.4251 38.4864 12.5892L37.2235 16.3987C37.1849 16.5151 37.2104 16.6432 37.2906 16.736L39.9152 19.7722C40.0283 19.903 40.0283 20.097 39.9152 20.2277L37.2906 23.264C37.2104 23.3568 37.1849 23.4849 37.2235 23.6013L38.4864 27.4108C38.5408 27.5749 38.4666 27.7541 38.3121 27.8316L34.7254 29.6324C34.6158 29.6874 34.5432 29.796 34.5343 29.9183L34.2432 33.9211C34.2307 34.0936 34.0936 34.2307 33.9211 34.2432L29.9183 34.5343C29.796 34.5432 29.6874 34.6158 29.6324 34.7254L27.8316 38.3121C27.7541 38.4666 27.5749 38.5408 27.4108 38.4864L23.6013 37.2235C23.4849 37.1849 23.3568 37.2104 23.264 37.2906L20.2277 39.9152C20.097 40.0283 19.903 40.0283 19.7722 39.9152L16.736 37.2906C16.6432 37.2104 16.5151 37.1849 16.3987 37.2235L12.5892 38.4864C12.4251 38.5408 12.2459 38.4666 12.1684 38.3121L10.3676 34.7254C10.3126 34.6158 10.204 34.5432 10.0817 34.5343L6.07886 34.2432C5.90644 34.2307 5.76932 34.0936 5.75678 33.9211L5.4657 29.9183C5.4568 29.796 5.38422 29.6874 5.27461 29.6324L1.6879 27.8316C1.5334 27.7541 1.45919 27.5749 1.51359 27.4108L2.77647 23.6013C2.81506 23.4849 2.78958 23.3568 2.70937 23.264L0.0847912 20.2277C-0.0282638 20.097 -0.0282637 19.903 0.0847913 19.7722L2.70937 16.736C2.78958 16.6432 2.81506 16.5151 2.77647 16.3987L1.51359 12.5892C1.45919 12.4251 1.5334 12.2459 1.6879 12.1684L5.27461 10.3676C5.38422 10.3126 5.4568 10.204 5.4657 10.0817L5.75678 6.07886C5.76932 5.90644 5.90644 5.76932 6.07886 5.75678L10.0817 5.4657C10.204 5.4568 10.3126 5.38422 10.3676 5.27461L12.1684 1.6879C12.2459 1.5334 12.4251 1.45919 12.5892 1.51359L16.3987 2.77647C16.5151 2.81506 16.6432 2.78958 16.736 2.70937L19.7722 0.0847912Z"
        fill="white" />
    <g clip-path="url(#clip0_750_12520)">
        <path
            d="M12 14.7188C12 14.0459 12.5375 13.5 13.2 13.5H21.2C21.8625 13.5 22.4 14.0459 22.4 14.7188V15.9375H23.6675C24.0925 15.9375 24.5 16.1076 24.8 16.4123L26.7325 18.375C27.0325 18.6797 27.2 19.0936 27.2 19.5252V20V20.8125V22.4375C27.6425 22.4375 28 22.8006 28 23.25C28 23.6994 27.6425 24.0625 27.2 24.0625H26.4C26.4 25.4082 25.325 26.5 24 26.5C22.675 26.5 21.6 25.4082 21.6 24.0625H18.4C18.4 25.4082 17.325 26.5 16 26.5C14.675 26.5 13.6 25.4082 13.6 24.0625H13.2C12.5375 24.0625 12 23.5166 12 22.8438V14.7188ZM22.4 20H25.6V19.5252L23.6675 17.5625H22.4V20ZM16 25.2812C16.3183 25.2812 16.6235 25.1528 16.8485 24.9243C17.0736 24.6957 17.2 24.3857 17.2 24.0625C17.2 23.7393 17.0736 23.4293 16.8485 23.2007C16.6235 22.9722 16.3183 22.8438 16 22.8438C15.6817 22.8438 15.3765 22.9722 15.1515 23.2007C14.9264 23.4293 14.8 23.7393 14.8 24.0625C14.8 24.3857 14.9264 24.6957 15.1515 24.9243C15.3765 25.1528 15.6817 25.2812 16 25.2812ZM25.2 24.0625C25.2 23.7393 25.0736 23.4293 24.8485 23.2007C24.6235 22.9722 24.3183 22.8438 24 22.8438C23.6817 22.8438 23.3765 22.9722 23.1515 23.2007C22.9264 23.4293 22.8 23.7393 22.8 24.0625C22.8 24.3857 22.9264 24.6957 23.1515 24.9243C23.3765 25.1528 23.6817 25.2812 24 25.2812C24.3183 25.2812 24.6235 25.1528 24.8485 24.9243C25.0736 24.6957 25.2 24.3857 25.2 24.0625ZM16.4 15.5312V16.75H15.2C14.98 16.75 14.8 16.9328 14.8 17.1562V17.9688C14.8 18.1922 14.98 18.375 15.2 18.375H16.4V19.5938C16.4 19.8172 16.58 20 16.8 20H17.6C17.82 20 18 19.8172 18 19.5938V18.375H19.2C19.42 18.375 19.6 18.1922 19.6 17.9688V17.1562C19.6 16.9328 19.42 16.75 19.2 16.75H18V15.5312C18 15.3078 17.82 15.125 17.6 15.125H16.8C16.58 15.125 16.4 15.3078 16.4 15.5312Z"
            fill="#737373" />
    </g>
    <defs>
        <clipPath id="clip0_750_12520">
            <rect width="16" height="13" fill="white" transform="translate(12 13.5)" />
        </clipPath>
    </defs>
</svg>