<svg width="40" height="40" viewBox="0 0 40 40" fill="none" xmlns="http://www.w3.org/2000/svg">
    <path
        d="M19.7722 0.0847912C19.903 -0.0282638 20.097 -0.0282637 20.2277 0.0847913L23.264 2.70937C23.3568 2.78958 23.4849 2.81506 23.6013 2.77647L27.4108 1.51359C27.5749 1.45919 27.7541 1.5334 27.8316 1.6879L29.6324 5.27461C29.6874 5.38422 29.796 5.4568 29.9183 5.4657L33.9211 5.75678C34.0936 5.76932 34.2307 5.90644 34.2432 6.07886L34.5343 10.0817C34.5432 10.204 34.6158 10.3126 34.7254 10.3676L38.3121 12.1684C38.4666 12.2459 38.5408 12.4251 38.4864 12.5892L37.2235 16.3987C37.1849 16.5151 37.2104 16.6432 37.2906 16.736L39.9152 19.7722C40.0283 19.903 40.0283 20.097 39.9152 20.2277L37.2906 23.264C37.2104 23.3568 37.1849 23.4849 37.2235 23.6013L38.4864 27.4108C38.5408 27.5749 38.4666 27.7541 38.3121 27.8316L34.7254 29.6324C34.6158 29.6874 34.5432 29.796 34.5343 29.9183L34.2432 33.9211C34.2307 34.0936 34.0936 34.2307 33.9211 34.2432L29.9183 34.5343C29.796 34.5432 29.6874 34.6158 29.6324 34.7254L27.8316 38.3121C27.7541 38.4666 27.5749 38.5408 27.4108 38.4864L23.6013 37.2235C23.4849 37.1849 23.3568 37.2104 23.264 37.2906L20.2277 39.9152C20.097 40.0283 19.903 40.0283 19.7722 39.9152L16.736 37.2906C16.6432 37.2104 16.5151 37.1849 16.3987 37.2235L12.5892 38.4864C12.4251 38.5408 12.2459 38.4666 12.1684 38.3121L10.3676 34.7254C10.3126 34.6158 10.204 34.5432 10.0817 34.5343L6.07886 34.2432C5.90644 34.2307 5.76932 34.0936 5.75678 33.9211L5.4657 29.9183C5.4568 29.796 5.38422 29.6874 5.27461 29.6324L1.6879 27.8316C1.5334 27.7541 1.45919 27.5749 1.51359 27.4108L2.77647 23.6013C2.81506 23.4849 2.78958 23.3568 2.70937 23.264L0.0847912 20.2277C-0.0282638 20.097 -0.0282637 19.903 0.0847913 19.7722L2.70937 16.736C2.78958 16.6432 2.81506 16.5151 2.77647 16.3987L1.51359 12.5892C1.45919 12.4251 1.5334 12.2459 1.6879 12.1684L5.27461 10.3676C5.38422 10.3126 5.4568 10.204 5.4657 10.0817L5.75678 6.07886C5.76932 5.90644 5.90644 5.76932 6.07886 5.75678L10.0817 5.4657C10.204 5.4568 10.3126 5.38422 10.3676 5.27461L12.1684 1.6879C12.2459 1.5334 12.4251 1.45919 12.5892 1.51359L16.3987 2.77647C16.5151 2.81506 16.6432 2.78958 16.736 2.70937L19.7722 0.0847912Z"
        fill="#6366F1" />
    <path
        d="M25 28H16C14.3438 28 13 26.6562 13 25V15C13 13.3438 14.3438 12 16 12H25.5C26.3281 12 27 12.6719 27 13.5V22.5C27 23.1531 26.5813 23.7094 26 23.9156V26C26.5531 26 27 26.4469 27 27C27 27.5531 26.5531 28 26 28H25ZM16 24C15.4469 24 15 24.4469 15 25C15 25.5531 15.4469 26 16 26H24V24H16ZM17 16.75C17 17.1656 17.3344 17.5 17.75 17.5H23.25C23.6656 17.5 24 17.1656 24 16.75C24 16.3344 23.6656 16 23.25 16H17.75C17.3344 16 17 16.3344 17 16.75ZM17.75 19C17.3344 19 17 19.3344 17 19.75C17 20.1656 17.3344 20.5 17.75 20.5H23.25C23.6656 20.5 24 20.1656 24 19.75C24 19.3344 23.6656 19 23.25 19H17.75Z"
        fill="#FFFFFF" />
</svg>