<svg width="40" height="40" viewBox="0 0 40 40" fill="none" xmlns="http://www.w3.org/2000/svg">
    <path
        d="M19.7722 0.0847912C19.903 -0.0282638 20.097 -0.0282637 20.2277 0.0847913L23.264 2.70937C23.3568 2.78958 23.4849 2.81506 23.6013 2.77647L27.4108 1.51359C27.5749 1.45919 27.7541 1.5334 27.8316 1.6879L29.6324 5.27461C29.6874 5.38422 29.796 5.4568 29.9183 5.4657L33.9211 5.75678C34.0936 5.76932 34.2307 5.90644 34.2432 6.07886L34.5343 10.0817C34.5432 10.204 34.6158 10.3126 34.7254 10.3676L38.3121 12.1684C38.4666 12.2459 38.5408 12.4251 38.4864 12.5892L37.2235 16.3987C37.1849 16.5151 37.2104 16.6432 37.2906 16.736L39.9152 19.7722C40.0283 19.903 40.0283 20.097 39.9152 20.2277L37.2906 23.264C37.2104 23.3568 37.1849 23.4849 37.2235 23.6013L38.4864 27.4108C38.5408 27.5749 38.4666 27.7541 38.3121 27.8316L34.7254 29.6324C34.6158 29.6874 34.5432 29.796 34.5343 29.9183L34.2432 33.9211C34.2307 34.0936 34.0936 34.2307 33.9211 34.2432L29.9183 34.5343C29.796 34.5432 29.6874 34.6158 29.6324 34.7254L27.8316 38.3121C27.7541 38.4666 27.5749 38.5408 27.4108 38.4864L23.6013 37.2235C23.4849 37.1849 23.3568 37.2104 23.264 37.2906L20.2277 39.9152C20.097 40.0283 19.903 40.0283 19.7722 39.9152L16.736 37.2906C16.6432 37.2104 16.5151 37.1849 16.3987 37.2235L12.5892 38.4864C12.4251 38.5408 12.2459 38.4666 12.1684 38.3121L10.3676 34.7254C10.3126 34.6158 10.204 34.5432 10.0817 34.5343L6.07886 34.2432C5.90644 34.2307 5.76932 34.0936 5.75678 33.9211L5.4657 29.9183C5.4568 29.796 5.38422 29.6874 5.27461 29.6324L1.6879 27.8316C1.5334 27.7541 1.45919 27.5749 1.51359 27.4108L2.77647 23.6013C2.81506 23.4849 2.78958 23.3568 2.70937 23.264L0.0847912 20.2277C-0.0282638 20.097 -0.0282637 19.903 0.0847913 19.7722L2.70937 16.736C2.78958 16.6432 2.81506 16.5151 2.77647 16.3987L1.51359 12.5892C1.45919 12.4251 1.5334 12.2459 1.6879 12.1684L5.27461 10.3676C5.38422 10.3126 5.4568 10.204 5.4657 10.0817L5.75678 6.07886C5.76932 5.90644 5.90644 5.76932 6.07886 5.75678L10.0817 5.4657C10.204 5.4568 10.3126 5.38422 10.3676 5.27461L12.1684 1.6879C12.2459 1.5334 12.4251 1.45919 12.5892 1.51359L16.3987 2.77647C16.5151 2.81506 16.6432 2.78958 16.736 2.70937L19.7722 0.0847912Z"
        fill="white" />
    <g clip-path="url(#clip0_750_12552)">
        <path
            d="M15.5 12C14.6719 12 14 12.6719 14 13.5V26.5C14 27.3281 14.6719 28 15.5 28H18.5V25.5C18.5 24.6719 19.1719 24 20 24C20.8281 24 21.5 24.6719 21.5 25.5V28H24.5C25.3281 28 26 27.3281 26 26.5V13.5C26 12.6719 25.3281 12 24.5 12H15.5ZM16 19.5C16 19.225 16.225 19 16.5 19H17.5C17.775 19 18 19.225 18 19.5V20.5C18 20.775 17.775 21 17.5 21H16.5C16.225 21 16 20.775 16 20.5V19.5ZM19.5 19H20.5C20.775 19 21 19.225 21 19.5V20.5C21 20.775 20.775 21 20.5 21H19.5C19.225 21 19 20.775 19 20.5V19.5C19 19.225 19.225 19 19.5 19ZM22 19.5C22 19.225 22.225 19 22.5 19H23.5C23.775 19 24 19.225 24 19.5V20.5C24 20.775 23.775 21 23.5 21H22.5C22.225 21 22 20.775 22 20.5V19.5ZM16.5 15H17.5C17.775 15 18 15.225 18 15.5V16.5C18 16.775 17.775 17 17.5 17H16.5C16.225 17 16 16.775 16 16.5V15.5C16 15.225 16.225 15 16.5 15ZM19 15.5C19 15.225 19.225 15 19.5 15H20.5C20.775 15 21 15.225 21 15.5V16.5C21 16.775 20.775 17 20.5 17H19.5C19.225 17 19 16.775 19 16.5V15.5ZM22.5 15H23.5C23.775 15 24 15.225 24 15.5V16.5C24 16.775 23.775 17 23.5 17H22.5C22.225 17 22 16.775 22 16.5V15.5C22 15.225 22.225 15 22.5 15Z"
            fill="#737373" />
    </g>
    <defs>
        <clipPath id="clip0_750_12552">
            <rect width="12" height="16" fill="white" transform="translate(14 12)" />
        </clipPath>
    </defs>
</svg>