<svg width="40" height="40" viewBox="0 0 40 40" fill="none" xmlns="http://www.w3.org/2000/svg">
    <path
        d="M19.7722 0.0847912C19.903 -0.0282638 20.097 -0.0282637 20.2277 0.0847913L23.264 2.70937C23.3568 2.78958 23.4849 2.81506 23.6013 2.77647L27.4108 1.51359C27.5749 1.45919 27.7541 1.5334 27.8316 1.6879L29.6324 5.27461C29.6874 5.38422 29.796 5.4568 29.9183 5.4657L33.9211 5.75678C34.0936 5.76932 34.2307 5.90644 34.2432 6.07886L34.5343 10.0817C34.5432 10.204 34.6158 10.3126 34.7254 10.3676L38.3121 12.1684C38.4666 12.2459 38.5408 12.4251 38.4864 12.5892L37.2235 16.3987C37.1849 16.5151 37.2104 16.6432 37.2906 16.736L39.9152 19.7722C40.0283 19.903 40.0283 20.097 39.9152 20.2277L37.2906 23.264C37.2104 23.3568 37.1849 23.4849 37.2235 23.6013L38.4864 27.4108C38.5408 27.5749 38.4666 27.7541 38.3121 27.8316L34.7254 29.6324C34.6158 29.6874 34.5432 29.796 34.5343 29.9183L34.2432 33.9211C34.2307 34.0936 34.0936 34.2307 33.9211 34.2432L29.9183 34.5343C29.796 34.5432 29.6874 34.6158 29.6324 34.7254L27.8316 38.3121C27.7541 38.4666 27.5749 38.5408 27.4108 38.4864L23.6013 37.2235C23.4849 37.1849 23.3568 37.2104 23.264 37.2906L20.2277 39.9152C20.097 40.0283 19.903 40.0283 19.7722 39.9152L16.736 37.2906C16.6432 37.2104 16.5151 37.1849 16.3987 37.2235L12.5892 38.4864C12.4251 38.5408 12.2459 38.4666 12.1684 38.3121L10.3676 34.7254C10.3126 34.6158 10.204 34.5432 10.0817 34.5343L6.07886 34.2432C5.90644 34.2307 5.76932 34.0936 5.75678 33.9211L5.4657 29.9183C5.4568 29.796 5.38422 29.6874 5.27461 29.6324L1.6879 27.8316C1.5334 27.7541 1.45919 27.5749 1.51359 27.4108L2.77647 23.6013C2.81506 23.4849 2.78958 23.3568 2.70937 23.264L0.0847912 20.2277C-0.0282638 20.097 -0.0282637 19.903 0.0847913 19.7722L2.70937 16.736C2.78958 16.6432 2.81506 16.5151 2.77647 16.3987L1.51359 12.5892C1.45919 12.4251 1.5334 12.2459 1.6879 12.1684L5.27461 10.3676C5.38422 10.3126 5.4568 10.204 5.4657 10.0817L5.75678 6.07886C5.76932 5.90644 5.90644 5.76932 6.07886 5.75678L10.0817 5.4657C10.204 5.4568 10.3126 5.38422 10.3676 5.27461L12.1684 1.6879C12.2459 1.5334 12.4251 1.45919 12.5892 1.51359L16.3987 2.77647C16.5151 2.81506 16.6432 2.78958 16.736 2.70937L19.7722 0.0847912Z"
        fill="white" />
    <g clip-path="url(#clip0_750_12584)">
        <path
            d="M19.5031 12.1312C19.8094 11.9562 20.1875 11.9562 20.4969 12.1312L25.8656 15.1969L26 15.25V15.2781L27.4969 16.1344C27.8906 16.3594 28.0844 16.8219 27.9687 17.2594C27.8531 17.6969 27.4562 18.0031 27.0031 18.0031L13 18C12.5469 18 12.15 17.6937 12.0344 17.2562C11.9187 16.8187 12.1125 16.3562 12.5062 16.1312L14 15.2781V15.25L14.1375 15.2L19.5031 12.1312ZM14 19H16V25H17.25V19H19.25V25H20.75V19H22.75V25H24V19H26V25.1344C26.0187 25.1437 26.0375 25.1562 26.0562 25.1687L27.5562 26.1687C27.9219 26.4125 28.0875 26.8687 27.9594 27.2906C27.8312 27.7125 27.4406 28 27 28H13C12.5594 28 12.1719 27.7125 12.0437 27.2906C11.9156 26.8687 12.0781 26.4125 12.4469 26.1687L13.9469 25.1687C13.9656 25.1562 13.9844 25.1469 14.0031 25.1344L14 19Z"
            fill="#737373" />
    </g>
    <defs>
        <clipPath id="clip0_750_12584">
            <rect width="16" height="16" fill="white" transform="translate(12 12)" />
        </clipPath>
    </defs>
</svg>